<svg enable-background="new 0 0 595.3 841.9" viewBox="0 0 595.3 841.9" xmlns="http://www.w3.org/2000/svg"><path d="m147.9 552.5c0-4-3.6-5.1-8-6.3-6.2-1.7-12.1-4.2-12.1-12.3 0-7.7 5.9-12.4 14.6-12.4 4.2 0 8.1.8 11.9 2.6v9.5l-6.4.4v-3.7c0-1.2-.2-1.7-1.3-2.1-1.2-.4-2.8-.5-4.1-.5-3.7 0-6.6 1.5-6.6 5.4s3.7 5 8.4 6.4c5.7 1.8 11.8 4.4 11.8 12.6 0 8.3-6.6 12.9-15.3 12.9-5 0-9-.8-12.7-2.6v-10l6.4-.4v3.8c0 1.2.2 1.7 1.3 2.1 1.2.4 2.8.6 4.5.6 4.2 0 7.6-1.3 7.6-6z"/><path d="m171.9 527.7-4-.4v-5.1h14.5l12.9 36.4h.1l3.6.2v5.4h-16.3v-5.1l2.4-.2c1.3-.1 2-.5 1.5-1.9l-1.3-3.9h-14.8l-1.9 5.6 3.8.2v5.4h-14.6v-5.1l2.1-.2c1.1-.1 1.5-.6 1.9-1.8zm.1 19.6h11.7l-5.7-18h-.2z"/><path d="m208.2 548.2-10.7-20.4-3-.2v-5.4h15.4v5.1l-1.9.2c-1.4.1-1.8 1.1-1.1 2.5l5.4 11h.3l6.9-13.1-3.2-.3v-5.4h13.6v5.1l-1.9.2c-1 .1-1.5.8-2.1 1.9l-9.9 18.7v10.5l4.9.2v5.4h-17.9v-5.1l3.3-.2c1.2-.1 1.8-.5 1.8-1.8v-8.9z"/><path d="m244.9 559.1 2.1-.2c1.1-.1 1.8-.5 1.8-1.8v-29.3l-3.6-.2v-5.4h30.5v10.5l-6.4.4v-2.5c0-1.2-.1-2-1.8-2h-10.9v11.2h15.5v6.4h-15.5v12.4l5.6.2v5.4h-17.2v-5.1z"/><path d="m287.7 527.7-4-.4v-5.1h14.5l12.9 36.4h.1l3.6.2v5.4h-16.3v-5.1l2.4-.2c1.3-.1 2-.5 1.5-1.9l-1.3-3.9h-14.8l-1.9 5.6 3.8.2v5.4h-14.6v-5.1l2.1-.2c1.1-.1 1.5-.6 1.9-1.8zm.1 19.6h11.7l-5.7-18h-.2z"/><path d="m341.4 550.8h.1l10.8-28.5h12.5v5.1l-2.1.2c-1.1.1-1.9.5-1.8 2.2l1.6 28.9 3.9.2v5.4h-15.2v-5.1l2.3-.2c1-.1 1.7-.4 1.6-1.6l-1.2-22.3h-.1l-9.7 25.2h-6l-9.6-24.9h-.1l-1.3 23.4 4.1.2v5.4h-14.9v-5.1l2.3-.2c.9-.1 1.5-.7 1.6-1.7l1.7-29.3-3.8-.3v-5.4h12.7z"/><path d="m373.6 527.8-3.6-.2v-5.4h15.3v5.1l-2.1.2c-1.1.1-1.8.5-1.8 2v29.1l3.6.2v5.4h-15.3v-5.1l2.1-.2c1.2-.1 1.8-.5 1.8-2.1z"/><path d="m389.1 564.2v-5.1l2.1-.2c1.1-.1 1.8-.5 1.8-1.8v-29.3l-3.6-.2v-5.4h15.2v5.1l-2.1.2c-1.1.1-1.8.5-1.8 2v28.1h10.5c1.3 0 1.5-.8 1.5-2v-4.4l6.4.4v12.5h-30z"/><path d="m429.9 548.2-10.7-20.4-3-.2v-5.4h15.4v5.1l-1.9.2c-1.4.1-1.8 1.1-1.1 2.5l5.4 11h.3l6.9-13.1-3.2-.3v-5.4h13.6v5.1l-1.9.2c-1 .1-1.5.8-2.1 1.9l-9.9 18.7v10.5l4.9.2v5.4h-17.8v-5.1l3.3-.2c1.2-.1 1.8-.5 1.8-1.8z"/><path d="m114.8 596.7v-5.5h-11.9v9.1h8.6v6.7h-8.6v10.3h6.1v6.7h-22.1v-6.7h5.6v-26.1h-5.6v-6.7h35.5v12.2z"/><path d="m123.9 604.2c0-4 .9-7.5 2.8-10.6 1.8-3.1 4.4-5.4 7.8-7.2s7.2-2.6 11.5-2.6 8.2.9 11.5 2.6 5.9 4.1 7.7 7.2 2.7 6.6 2.7 10.6-.9 7.6-2.7 10.7-4.4 5.5-7.7 7.2-7.2 2.5-11.5 2.5c-4.2 0-8-.8-11.4-2.5s-6-4.1-7.9-7.2c-1.8-3.1-2.8-6.7-2.8-10.7zm33-.1c0-2.4-.4-4.6-1.3-6.6s-2.1-3.5-3.8-4.7-3.6-1.7-5.8-1.7-4.2.6-5.8 1.7c-1.6 1.2-2.9 2.7-3.8 4.7s-1.3 4.2-1.3 6.6c0 2.5.5 4.8 1.4 6.8s2.2 3.6 3.8 4.7 3.5 1.7 5.7 1.7 4.2-.6 5.8-1.7 2.9-2.7 3.8-4.7 1.3-4.3 1.3-6.8z"/><path d="m185.4 591.2v18.5c0 2.2.2 3.9.6 5.1s1 2 1.7 2.4 1.7.7 2.9.7c1.8 0 3.2-.6 4.1-1.9s1.3-3.5 1.3-6.6v-18.2h-3.8v-6.7h15.8v6.7h-4.8v20.1c0 4.6-1 8-3.1 10.1s-5.6 3.2-10.5 3.2c-3.5 0-6.3-.5-8.3-1.4-2.1-.9-3.6-2.5-4.6-4.7s-1.5-5.2-1.5-9v-18.3h-4.7v-6.7h18.9v6.7z"/><path d="m241.6 591.2h-5.1v-6.7h17.7v6.7h-5.5v33.1h-8.8l-17.1-29.3v22.4h5v6.7h-17.3v-6.7h5.3v-26.1h-5.3v-6.7h16.6l14.6 24.7v-18.1z"/><path d="m298.3 604.8c0 4.1-.9 7.7-2.6 10.6-1.8 2.9-4.2 5.1-7.3 6.5s-6.7 2.2-10.7 2.2h-21.8v-6.7h6v-26.1h-6v-6.7h21.3c4.1 0 7.7.7 10.9 2.1s5.7 3.6 7.5 6.6 2.7 6.8 2.7 11.5zm-10.8-.4c0-4.4-1-7.7-3-9.9s-5-3.3-8.9-3.3h-3.5v26.1h2.4c3.6 0 6.3-.6 8.2-1.8s3.2-2.7 3.8-4.6c.7-1.8 1-3.9 1-6.5z"/><path d="m326.6 591.2 8.3 26.1h4.7v6.7h-19.5v-6.7h5.1l-1.9-6.7h-10.3l-2.1 6.7h5.3v6.7h-17.5v-6.7h4.9l7.7-26.1h-5.3v-6.7h25.9v6.7zm-8.2 1.6-3.5 11.9h6.9z"/><path d="m366.6 600.4v-9.2h-6.1v26.1h5.9v6.7h-22.2v-6.7h6v-26.1h-6v9.2h-6.7v-15.9h35.8v15.9z"/><path d="m392.2 591.2v26.1h6.1v6.7h-22.4v-6.7h6v-26.1h-6v-6.7h22.4v6.7z"/><path d="m400.4 604.2c0-4 .9-7.5 2.8-10.6 1.8-3.1 4.4-5.4 7.8-7.2s7.2-2.6 11.5-2.6 8.2.9 11.5 2.6 5.9 4.1 7.7 7.2 2.7 6.6 2.7 10.6-.9 7.6-2.7 10.7-4.4 5.5-7.7 7.2-7.2 2.5-11.5 2.5c-4.2 0-8-.8-11.4-2.5s-6-4.1-7.9-7.2-2.8-6.7-2.8-10.7zm32.9-.1c0-2.4-.4-4.6-1.3-6.6s-2.1-3.5-3.8-4.7-3.6-1.7-5.8-1.7-4.2.6-5.8 1.7c-1.6 1.2-2.9 2.7-3.8 4.7s-1.3 4.2-1.3 6.6c0 2.5.5 4.8 1.4 6.8s2.2 3.6 3.8 4.7 3.5 1.7 5.7 1.7 4.2-.6 5.8-1.7 2.9-2.7 3.8-4.7 1.3-4.3 1.3-6.8z"/><path d="m478.6 591.2h-5.1v-6.7h17.7v6.7h-5.5v33.1h-8.8l-17.1-29.3v22.4h5v6.7h-17.3v-6.7h5.3v-26.1h-5.3v-6.7h16.5l14.6 24.7z"/><path d="m285.9 503.1c3.1-6.9 6.5-13.8 9.3-20.9 5.6-14.6 11.4-29.1 16-44 4.6-14.8 5.7-30.1 1.7-45.5-3.2-12.4-10.8-21.7-20.9-28.9-5.6-4-11.6-7.3-17.9-11.2-10.5 34.2-28 63.4-54.8 88.2 3.6-8.2 7-15 9.8-22 7.9-19.9 8.2-39.7-.7-59.5-4.5-10-10-19.2-18.5-26.3-11-9.1-17.7-7.4-29.8-1.6-12 5.7-20.2 15.6-27.2 26.6-.5.8-1.2 1.6-1.8 2.4-.2.2-.5.3-1.3.7 1.8-9.9 5.7-18.4 11.5-26.1 8.7-11.5 20.5-18 34-22.4 12.8-4.1 25.8-8.2 38-13.9 15.5-7.1 28.4-18.2 38.6-31.9 8.5-11.3 16.2-23.2 24.9-34.4 12.5-16.2 29.2-26.6 49-31.6 14.7-3.7 29.5-3.4 43.9 1.8 27.4 9.9 46.2 28.2 53.6 56.8 5.4 21.1 1.9 55.3-3.1 71.3-5.2 16.6-12.7 32.1-21.6 47-14.7 24.6-33.8 45.6-54 65.5-17.1 16.8-35.2 32.5-55.2 45.9-6.6 4.4-13 9-19.6 13.5-.9.6-1.9.9-2.9 1.4-.4-.3-.7-.6-1-.9zm37.8-153.7c7.5-.9 15.2-1.1 22.6-2.9 29.4-6.9 52.6-22.9 69.6-48 6.6-9.8 10.2-20.8 9.9-32.5-.2-10.7-4.4-20.5-10.4-29.4-9.8-14.7-23.6-23.1-40.7-26.4-17.4-3.4-33.5-.9-48.6 8.9-24.8 16.2-37.5 40-43 68.1-2.8 14.5-4.2 29.2-6.1 43.9-.9 6.7.3 8.3 7 10.7 12.9 4.6 26 7.1 39.7 7.6z"/><g fill="#0dac8e"><path d="m195 264.2c-1.4-13.1 11.5-26.2 25.6-25.3 13.9.9 23.8 11.2 24 23.8.2 14-8.9 25.9-25.7 26.1-13 .2-23.9-11.2-23.9-24.6z"/><path d="m354.8 319.9c-15.7-.2-28.5-14.5-28.6-29-.1-14.4 12.4-28.2 26.8-29.1 18.6-1.2 31.9 13.5 32 28.7.1 15.8-13.5 29.8-30.2 29.4z"/></g></svg>